<mxfile host="app.diagrams.net" agent="Mozilla/5.0 (Windows NT 10.0; Win64; x64) AppleWebKit/537.36 (KHTML, like Gecko) Chrome/133.0.0.0 Safari/537.36 Edg/133.0.0.0" version="26.0.4">
  <diagram name="Page-1" id="1FWG8k4TgQIaP8a6xC3J">
    <mxGraphModel dx="708" dy="423" grid="1" gridSize="10" guides="1" tooltips="1" connect="1" arrows="1" fold="1" page="1" pageScale="1" pageWidth="850" pageHeight="1100" math="0" shadow="0">
      <root>
        <mxCell id="0" />
        <mxCell id="1" parent="0" />
        <mxCell id="J80sfuaPhc7ZIoiilbna-4" style="edgeStyle=orthogonalEdgeStyle;rounded=0;orthogonalLoop=1;jettySize=auto;html=1;exitX=0.5;exitY=1;exitDx=0;exitDy=0;entryX=0.5;entryY=0;entryDx=0;entryDy=0;" edge="1" parent="1" source="J80sfuaPhc7ZIoiilbna-1" target="J80sfuaPhc7ZIoiilbna-2">
          <mxGeometry relative="1" as="geometry" />
        </mxCell>
        <mxCell id="J80sfuaPhc7ZIoiilbna-1" value="Start" style="ellipse;whiteSpace=wrap;html=1;aspect=fixed;" vertex="1" parent="1">
          <mxGeometry x="360" y="40" width="80" height="80" as="geometry" />
        </mxCell>
        <mxCell id="J80sfuaPhc7ZIoiilbna-5" style="edgeStyle=orthogonalEdgeStyle;rounded=0;orthogonalLoop=1;jettySize=auto;html=1;exitX=0.5;exitY=1;exitDx=0;exitDy=0;entryX=0.5;entryY=0;entryDx=0;entryDy=0;" edge="1" parent="1" source="J80sfuaPhc7ZIoiilbna-2" target="J80sfuaPhc7ZIoiilbna-3">
          <mxGeometry relative="1" as="geometry" />
        </mxCell>
        <mxCell id="J80sfuaPhc7ZIoiilbna-2" value="Game Setup" style="rounded=0;whiteSpace=wrap;html=1;" vertex="1" parent="1">
          <mxGeometry x="340" y="160" width="120" height="40" as="geometry" />
        </mxCell>
        <mxCell id="J80sfuaPhc7ZIoiilbna-14" style="edgeStyle=orthogonalEdgeStyle;rounded=0;orthogonalLoop=1;jettySize=auto;html=1;exitX=0.5;exitY=1;exitDx=0;exitDy=0;entryX=0.5;entryY=0;entryDx=0;entryDy=0;" edge="1" parent="1" source="J80sfuaPhc7ZIoiilbna-3" target="J80sfuaPhc7ZIoiilbna-6">
          <mxGeometry relative="1" as="geometry" />
        </mxCell>
        <mxCell id="J80sfuaPhc7ZIoiilbna-3" value="Get user guess" style="rounded=0;whiteSpace=wrap;html=1;" vertex="1" parent="1">
          <mxGeometry x="355" y="240" width="90" height="50" as="geometry" />
        </mxCell>
        <mxCell id="J80sfuaPhc7ZIoiilbna-8" style="edgeStyle=orthogonalEdgeStyle;rounded=0;orthogonalLoop=1;jettySize=auto;html=1;exitX=0;exitY=0.5;exitDx=0;exitDy=0;entryX=0;entryY=0.5;entryDx=0;entryDy=0;" edge="1" parent="1" source="J80sfuaPhc7ZIoiilbna-6" target="J80sfuaPhc7ZIoiilbna-3">
          <mxGeometry relative="1" as="geometry">
            <Array as="points">
              <mxPoint x="320" y="370" />
              <mxPoint x="320" y="265" />
            </Array>
          </mxGeometry>
        </mxCell>
        <mxCell id="J80sfuaPhc7ZIoiilbna-11" style="edgeStyle=orthogonalEdgeStyle;rounded=0;orthogonalLoop=1;jettySize=auto;html=1;exitX=1;exitY=0.5;exitDx=0;exitDy=0;entryX=0;entryY=0.5;entryDx=0;entryDy=0;" edge="1" parent="1" source="J80sfuaPhc7ZIoiilbna-6" target="J80sfuaPhc7ZIoiilbna-10">
          <mxGeometry relative="1" as="geometry" />
        </mxCell>
        <mxCell id="J80sfuaPhc7ZIoiilbna-16" style="edgeStyle=orthogonalEdgeStyle;rounded=0;orthogonalLoop=1;jettySize=auto;html=1;exitX=0.5;exitY=1;exitDx=0;exitDy=0;entryX=0.5;entryY=0;entryDx=0;entryDy=0;" edge="1" parent="1" source="J80sfuaPhc7ZIoiilbna-6" target="J80sfuaPhc7ZIoiilbna-15">
          <mxGeometry relative="1" as="geometry" />
        </mxCell>
        <mxCell id="J80sfuaPhc7ZIoiilbna-6" value="check&lt;div&gt;guess&lt;/div&gt;" style="rhombus;whiteSpace=wrap;html=1;" vertex="1" parent="1">
          <mxGeometry x="360" y="330" width="80" height="80" as="geometry" />
        </mxCell>
        <mxCell id="J80sfuaPhc7ZIoiilbna-9" value="Miss" style="text;html=1;align=center;verticalAlign=middle;resizable=0;points=[];autosize=1;strokeColor=none;fillColor=none;" vertex="1" parent="1">
          <mxGeometry x="315" y="348" width="50" height="30" as="geometry" />
        </mxCell>
        <mxCell id="J80sfuaPhc7ZIoiilbna-13" style="edgeStyle=orthogonalEdgeStyle;rounded=0;orthogonalLoop=1;jettySize=auto;html=1;exitX=0.5;exitY=0;exitDx=0;exitDy=0;entryX=1;entryY=0.5;entryDx=0;entryDy=0;" edge="1" parent="1" source="J80sfuaPhc7ZIoiilbna-10" target="J80sfuaPhc7ZIoiilbna-3">
          <mxGeometry relative="1" as="geometry" />
        </mxCell>
        <mxCell id="J80sfuaPhc7ZIoiilbna-10" value="Mark ship as hit" style="rounded=0;whiteSpace=wrap;html=1;" vertex="1" parent="1">
          <mxGeometry x="490" y="353.5" width="80" height="33" as="geometry" />
        </mxCell>
        <mxCell id="J80sfuaPhc7ZIoiilbna-12" value="Hit" style="text;html=1;align=center;verticalAlign=middle;resizable=0;points=[];autosize=1;strokeColor=none;fillColor=none;" vertex="1" parent="1">
          <mxGeometry x="440" y="348" width="40" height="30" as="geometry" />
        </mxCell>
        <mxCell id="J80sfuaPhc7ZIoiilbna-20" style="edgeStyle=orthogonalEdgeStyle;rounded=0;orthogonalLoop=1;jettySize=auto;html=1;exitX=0.5;exitY=1;exitDx=0;exitDy=0;entryX=0.5;entryY=0;entryDx=0;entryDy=0;" edge="1" parent="1" source="J80sfuaPhc7ZIoiilbna-15" target="J80sfuaPhc7ZIoiilbna-18">
          <mxGeometry relative="1" as="geometry" />
        </mxCell>
        <mxCell id="J80sfuaPhc7ZIoiilbna-15" value="Mark ship as sunk" style="rounded=0;whiteSpace=wrap;html=1;" vertex="1" parent="1">
          <mxGeometry x="360" y="440" width="80" height="30" as="geometry" />
        </mxCell>
        <mxCell id="J80sfuaPhc7ZIoiilbna-17" value="Sunk" style="text;html=1;align=center;verticalAlign=middle;resizable=0;points=[];autosize=1;strokeColor=none;fillColor=none;" vertex="1" parent="1">
          <mxGeometry x="400" y="410" width="50" height="30" as="geometry" />
        </mxCell>
        <mxCell id="J80sfuaPhc7ZIoiilbna-21" style="edgeStyle=orthogonalEdgeStyle;rounded=0;orthogonalLoop=1;jettySize=auto;html=1;exitX=0.5;exitY=1;exitDx=0;exitDy=0;entryX=0.5;entryY=0;entryDx=0;entryDy=0;" edge="1" parent="1" source="J80sfuaPhc7ZIoiilbna-18" target="J80sfuaPhc7ZIoiilbna-19">
          <mxGeometry relative="1" as="geometry" />
        </mxCell>
        <mxCell id="J80sfuaPhc7ZIoiilbna-18" value="Display user&amp;nbsp;&lt;div&gt;Score / Rating&lt;/div&gt;" style="rounded=0;whiteSpace=wrap;html=1;" vertex="1" parent="1">
          <mxGeometry x="345" y="510" width="110" height="40" as="geometry" />
        </mxCell>
        <mxCell id="J80sfuaPhc7ZIoiilbna-19" value="Game&lt;div&gt;Over&lt;/div&gt;" style="ellipse;whiteSpace=wrap;html=1;aspect=fixed;" vertex="1" parent="1">
          <mxGeometry x="360" y="590" width="80" height="80" as="geometry" />
        </mxCell>
      </root>
    </mxGraphModel>
  </diagram>
</mxfile>
